<?xml version="1.0" encoding="utf-8"?>
<!-- Generator: Adobe Illustrator 24.0.1, SVG Export Plug-In . SVG Version: 6.00 Build 0)  -->
<svg version="1.1" id="Layer_1" xmlns="http://www.w3.org/2000/svg" xmlns:xlink="http://www.w3.org/1999/xlink" x="0px" y="0px"
	 viewBox="0 0 14 21.9" style="enable-background:new 0 0 14 21.9;" xml:space="preserve">
<style type="text/css">
	.st0{fill:#CCCCCC;}
</style>
<path class="st0" d="M13.1,6.5c-0.1,0.1-1.7,1-1.7,3c0,2.4,2.1,3.2,2.1,3.2c0,0.1-0.3,1.1-1.1,2.3c-0.7,1-1.4,2-2.5,2
	s-1.4-0.6-2.6-0.6c-1.2,0-1.7,0.7-2.6,0.7S3,16.1,2.2,15c-0.9-1.3-1.7-3.3-1.7-5.3c0-3.1,2-4.7,4-4.7c1.1,0,1.9,0.7,2.6,0.7
	c0.6,0,1.6-0.7,2.8-0.7C10.4,4.9,12,4.9,13.1,6.5z M9.3,3.6c0.5-0.6,0.8-1.4,0.8-2.2c0-0.1,0-0.2,0-0.3c-0.8,0-1.8,0.5-2.3,1.2
	C7.4,2.8,6.9,3.6,6.9,4.4c0,0.1,0,0.2,0,0.3c0.1,0,0.1,0,0.2,0C7.9,4.7,8.8,4.2,9.3,3.6z"/>
</svg>
